<?xml version="1.0" encoding="UTF-8"?>
<svg id="_레이어_1" data-name=" 레이어 1" xmlns="http://www.w3.org/2000/svg" viewBox="0 0 580 650">
  <defs>
    <style>
      .cls-1, .cls-2, .cls-3, .cls-4 {
        fill: none;
      }

      .cls-2 {
        stroke: #221714;
      }

      .cls-2, .cls-3 {
        stroke-linecap: round;
      }

      .cls-2, .cls-3, .cls-4 {
        stroke-miterlimit: 10;
      }

      .cls-3, .cls-4 {
        stroke: #231815;
      }
    </style>
  </defs>
  <path id="cls-1" d="m227.48,290.9c-.07,25,.35,50-.13,74.99-.62,32.47-7.8,63.59-21.1,93.25"/>
  <path id="cls-2" d="m352.05,290.96c-.04-34.6-28.22-62.85-62.48-62.67-34.16.18-61.99,28.21-62.09,62.61"/>
  <path id="cls-3" d="m240.31,623.96c6.5-6.45,12.9-12.98,18.97-19.86,39.36-44.61,66.47-95.72,81.35-153.3,8.59-33.23,12.02-67.05,11.48-101.35-.31-19.49-.04-38.99-.06-58.49"/>
  <path id="cls-4" d="m401.32,487.81c6.59-21.3,11.43-42.99,14.66-65.04,2.77-18.96,4.41-38.04,4.64-57.18.31-25.49.21-50.99.05-76.48-.38-60.31-44.43-113.91-103.54-126.19-74.14-15.41-144.64,33.34-156.52,108.19-1.18,7.42-1.8,14.84-1.76,22.35.07,14.5,0,28.99.04,43.49"/>
  <path id="cls-5" d="m366.7,144.66c-34.8-18.09-71.43-23.28-109.92-15.88-67.42,12.95-121.49,70.48-130.62,138.67-2.54,18.94-1.1,37.91-1.64,54.05h-.02,0c0,15.66.4,28.5-.07,41.31-1.49,40.55-17.15,74.75-47.01,102.29-8.6,7.93-18.19,14.54-28.54,20.01"/>
  <path id="cls-6" d="m313.78,411.67c.8-7.27,1.98-14.51,2.6-21.79,2.85-33.6,1.23-67.28,1.3-100.92.03-14.93-13.41-26.54-28.53-26.26-15.02.27-27.32,12.42-27.41,27.5-.15,24.33.29,48.67-.12,73-.97,56.59-17.37,108.37-49.46,155.07-19.16,27.89-42.83,51.34-70.54,70.71"/>
  <path id="cls-7" d="m482.69,105.07c-33.12-33.91-72.01-58.56-117.79-71.25-77.78-21.56-151.4-11.31-219.71,31.95-51.55,32.64-87.14,78.45-107.87,135.82"/>
  <path id="cls-8" d="m286.39,57.25c-16.15.54-32.19,2.17-47.98,5.75-48.78,11.06-89.89,35.43-123.08,72.61-31.14,34.88-50.13,75.7-56.69,122.21-2.29,16.23-2.5,32.5-2.48,48.82.02,18.5.39,37-.14,55.48-.66,23.18-10.84,41.83-28.9,56.22"/>
  <path id="cls-9" d="m382.11,611.36c4.6-7.72,9.38-15.33,13.74-23.17,27.48-49.33,45.13-102.04,53.69-157.79,3.62-23.55,5.28-47.29,5.26-71.13-.02-24.16.56-48.33-.16-72.47-1.42-48.08-20.51-88.18-56.37-120.26"/>
  <path id="cls-10" d="m519.93,418.64c5.12-40.81,3.15-81.81,3.44-122.74.42-59.21-17.75-111.93-56.46-157.01-36.24-42.2-82.04-68.04-136.77-78.04"/>
  <path id="cls-11" d="m481.55,236.39c-24.73-77.06-76.33-125.5-155.8-141.09-64.94-12.74-122.46,5.5-171.71,49.67-.74.67-1.47,1.35-2.21,2.02"/>
  <path id="cls-12" d="m251.26,202.21c-31.79,14.76-50.78,39.44-56.93,73.88-1.02,5.7-1.2,11.6-1.23,17.41-.12,22.66.32,45.33-.08,67.98-1.15,64.23-26.78,117.17-74.84,159.38-9.37,8.23-19.67,15.34-30.62,21.42"/>
  <path id="cls-13" d="m289.78,293.73c0,14.43-.01,28.77-.01,45.67h0s0,0,0,0c.05,4.74.09,9.61.1,14.58.02,19.62-1.28,40.31-5.11,60.83-10.22,54.96-33.32,103.26-69.3,144.91-8.77,10.15-18.23,19.75-28.34,28.83-5.9,5.29-12.06,10.28-18.26,15.25"/>
  <path id="cls-14" d="m437.39,582.73c6.98-14.18,13.31-28.64,18.91-43.42,13.24-34.95,22.47-70.9,27.69-107.93,3.8-26.94,5.27-53.97,4.98-81.12-.26-24.98.69-49.96-.58-74.93"/>
  <path id="cls-15" d="m127.5,175.21c-17.61,24.62-28.92,51.86-34.12,81.66-2.19,12.51-2.87,25.11-2.84,37.79.05,23.32.97,46.7-.32,69.95-2.17,39.19-21.03,68.93-54.67,89.22"/>
  <path id="cls-16" d="m284.32,627.54c22.96-26.13,42.62-54.51,58.33-85.57,20.98-41.47,34.69-85.18,40.34-131.38,1.44-11.73,2.55-23.47,3.07-35.28"/>
  <path id="cls-17" d="m557.64,360.76c0-21-.15-42,.05-62.99.59-59.75-15.47-114.31-50.43-163.06"/>
  <path id="cls-18" d="m386.54,338.07c-.04-14.32-.12-28.65,0-42.97.42-50.94-31.47-90.06-81.53-99.66-6.52-1.25-13.2-1.56-19.88-1.31"/>
  <path id="cls-19" d="m200.6,613.9c6.06-5.44,12.3-10.73,18.05-16.49,42.11-42.21,71.56-91.85,87.25-149.5"/>
  <path id="cls-20" d="m157.54,382.06h0c-3.99,30.02-14.81,57.24-32.62,81.62-15.53,21.27-34.9,38.24-57.95,51"/>
  <path id="cls-21" d="m27.65,236.04c-1.74,9.15-3.16,18.33-4.09,27.61-1.04,10.28-1.67,20.55-1.66,30.87.03,20.83.01,41.65-.01,62.48"/>
  <path id="cls-22" d="m330.79,624.78c5.3-7.25,10.66-14.46,15.67-21.91,16.37-24.37,30.19-50.12,41.33-77.29.38-.92.75-1.85,1.11-2.78"/>
  <path id="cls-23" d="m187.08,494.24c-6.19,9.28-12.87,18.18-20.24,26.56-15.92,18.1-34.01,33.68-54.46,46.5-1.57.98-5.28,2.06-5.28,2.06"/>
  <path id="cls-24" d="m495.43,530.87c8.3-24.92,14.85-50.29,19.43-76.17"/>
  <rect class="cls-1" width="580" height="650"/>
</svg>